%TF.GenerationSoftware,Altium Limited,Altium Designer,23.4.1 (23)*%
G04 Layer_Color=128*
%FSLAX25Y25*%
%MOIN*%
%TF.SameCoordinates,CA34A1ED-C86D-48C7-BC74-79F278494880*%
%TF.FilePolarity,Positive*%
%TF.FileFunction,Drillmap*%
%TF.Part,Single*%
G01*
G75*
%TA.AperFunction,NonConductor*%
%ADD40C,0.00500*%
D40*
X200445Y46496D02*
X204445D01*
X202445Y44496D02*
Y48496D01*
X177445Y16496D02*
X181445D01*
X179445Y14496D02*
Y18496D01*
X98720Y53150D02*
X102067D01*
X100394Y51476D02*
Y54823D01*
X98720Y17716D02*
X102067D01*
X100394Y16043D02*
Y19390D01*
X12106Y82677D02*
X24902D01*
X18504Y76280D02*
Y89075D01*
X216831Y82677D02*
X229626D01*
X223228Y76280D02*
Y89075D01*
X216831Y181102D02*
X229626D01*
X223228Y174705D02*
Y187500D01*
X12106Y181102D02*
X24902D01*
X18504Y174705D02*
Y187500D01*
X188858Y76772D02*
X192874D01*
X190866Y74764D02*
Y78780D01*
X178858Y76772D02*
X182874D01*
X180866Y74764D02*
Y78780D01*
X168858Y76772D02*
X172874D01*
X170866Y74764D02*
Y78780D01*
X158858Y76772D02*
X162874D01*
X160866Y74764D02*
Y78780D01*
X148858Y76772D02*
X152874D01*
X150866Y74764D02*
Y78780D01*
X138858Y76772D02*
X142874D01*
X140866Y74764D02*
Y78780D01*
X128858Y76772D02*
X132874D01*
X130866Y74764D02*
Y78780D01*
X118858Y76772D02*
X122874D01*
X120866Y74764D02*
Y78780D01*
X108858Y76772D02*
X112874D01*
X110866Y74764D02*
Y78780D01*
X98858Y76772D02*
X102874D01*
X100866Y74764D02*
Y78780D01*
X88858Y76772D02*
X92874D01*
X90866Y74764D02*
Y78780D01*
X78858Y76772D02*
X82874D01*
X80866Y74764D02*
Y78780D01*
X68858Y76772D02*
X72874D01*
X70866Y74764D02*
Y78780D01*
X58858Y76772D02*
X62874D01*
X60866Y74764D02*
Y78780D01*
X48858Y76772D02*
X52874D01*
X50866Y74764D02*
Y78780D01*
X48858Y187008D02*
X52874D01*
X50866Y185000D02*
Y189016D01*
X58858Y187008D02*
X62874D01*
X60866Y185000D02*
Y189016D01*
X68858Y187008D02*
X72874D01*
X70866Y185000D02*
Y189016D01*
X78858Y187008D02*
X82874D01*
X80866Y185000D02*
Y189016D01*
X88858Y187008D02*
X92874D01*
X90866Y185000D02*
Y189016D01*
X98858Y187008D02*
X102874D01*
X100866Y185000D02*
Y189016D01*
X108858Y187008D02*
X112874D01*
X110866Y185000D02*
Y189016D01*
X118858Y187008D02*
X122874D01*
X120866Y185000D02*
Y189016D01*
X128858Y187008D02*
X132874D01*
X130866Y185000D02*
Y189016D01*
X138858Y187008D02*
X142874D01*
X140866Y185000D02*
Y189016D01*
X148858Y187008D02*
X152874D01*
X150866Y185000D02*
Y189016D01*
X158858Y187008D02*
X162874D01*
X160866Y185000D02*
Y189016D01*
X168858Y187008D02*
X172874D01*
X170866Y185000D02*
Y189016D01*
X178858Y187008D02*
X182874D01*
X180866Y185000D02*
Y189016D01*
X188858Y187008D02*
X192874D01*
X190866Y185000D02*
Y189016D01*
X172973Y212599D02*
X177106D01*
X175039Y210532D02*
Y214666D01*
X182973Y212599D02*
X187106D01*
X185039Y210532D02*
Y214666D01*
X389331Y27160D02*
X394449D01*
X391890Y24601D02*
Y29719D01*
X369331Y27160D02*
X374449D01*
X371890Y24601D02*
Y29719D01*
X295525Y27160D02*
X300643D01*
X298084Y24601D02*
Y29719D01*
X275525Y27160D02*
X280643D01*
X278084Y24601D02*
Y29719D01*
X154508Y35433D02*
X158642D01*
X156575Y33366D02*
Y37500D01*
X116949Y35433D02*
X121082D01*
X119016Y33366D02*
Y37500D01*
X73130Y53149D02*
X76477D01*
X74803Y51476D02*
Y54823D01*
X73130Y17716D02*
X76477D01*
X74803Y16043D02*
Y19390D01*
X85925Y53149D02*
X89272D01*
X87599Y51476D02*
Y54823D01*
X85925Y17716D02*
X89272D01*
X87599Y16043D02*
Y19389D01*
X60335Y53150D02*
X63681D01*
X62008Y51476D02*
Y54823D01*
X60335Y17716D02*
X63681D01*
X62008Y16043D02*
Y19390D01*
X47539Y53150D02*
X50886D01*
X49213Y51476D02*
Y54823D01*
X47539Y17717D02*
X50886D01*
X49213Y16043D02*
Y19390D01*
X154508Y53150D02*
X158642D01*
X156575Y51083D02*
Y55216D01*
X116949Y53150D02*
X121082D01*
X119016Y51083D02*
Y55216D01*
X11811Y218504D02*
X23622D01*
X17717Y212598D02*
Y224410D01*
X11811Y17717D02*
X23622D01*
X17717Y11811D02*
Y23622D01*
X407480Y17717D02*
X419291D01*
X413386Y11811D02*
Y23622D01*
X407480Y218498D02*
X419291D01*
X413386Y212593D02*
Y224404D01*
X133987Y214567D02*
X137530D01*
X135759Y212795D02*
Y216339D01*
X128987Y214567D02*
X132530D01*
X130759Y212795D02*
Y216339D01*
X123987Y214567D02*
X127530D01*
X125759Y212795D02*
Y216339D01*
X80878Y215215D02*
X84028D01*
X82453Y213640D02*
Y216789D01*
X86178Y215215D02*
X89328D01*
X87753Y213640D02*
Y216789D01*
X91478Y215215D02*
X94628D01*
X93053Y213640D02*
Y216789D01*
X314331Y114168D02*
X319528D01*
X316929Y111569D02*
Y116766D01*
X314331Y66924D02*
X319528D01*
X316929Y64325D02*
Y69522D01*
X266299Y66924D02*
X271496D01*
X268898Y64325D02*
Y69522D01*
X258484Y90546D02*
X263563D01*
X261024Y88006D02*
Y93085D01*
X266299Y114168D02*
X271496D01*
X268898Y111569D02*
Y116766D01*
X395433Y114168D02*
X400630D01*
X398032Y111569D02*
Y116766D01*
X395433Y66924D02*
X400630D01*
X398032Y64325D02*
Y69522D01*
X347402Y66924D02*
X352598D01*
X350000Y64325D02*
Y69522D01*
X339587Y90546D02*
X344665D01*
X342126Y88006D02*
Y93085D01*
X347402Y114168D02*
X352598D01*
X350000Y111569D02*
Y116766D01*
X216437Y212598D02*
X220571D01*
X218504Y210531D02*
Y214665D01*
X226437Y212598D02*
X230571D01*
X228504Y210531D02*
Y214665D01*
X248622Y27160D02*
X253740D01*
X251181Y24601D02*
Y29719D01*
X228622Y27160D02*
X233740D01*
X231181Y24601D02*
Y29719D01*
X147598Y15748D02*
X151929D01*
X149764Y13583D02*
Y17913D01*
X137598Y15748D02*
X141929D01*
X139764Y13583D02*
Y17913D01*
X127598Y15748D02*
X131929D01*
X129764Y13583D02*
Y17913D01*
X322428Y27160D02*
X327546D01*
X324987Y24601D02*
Y29719D01*
X342428Y27160D02*
X347546D01*
X344987Y24601D02*
Y29719D01*
X390998Y159443D02*
X394935D01*
X392966Y157475D02*
Y161412D01*
X390998Y183065D02*
X394935D01*
X392966Y181097D02*
Y185034D01*
X258715Y135821D02*
X262651D01*
X260683Y133853D02*
Y137790D01*
X258715Y206687D02*
X262651D01*
X260683Y204719D02*
Y208656D01*
X24626Y58071D02*
X28524D01*
X26575Y56122D02*
Y60020D01*
X6910Y58071D02*
X10807D01*
X8858Y56122D02*
Y60020D01*
X6910Y32480D02*
X10807D01*
X8858Y30531D02*
Y34429D01*
X24626Y32480D02*
X28524D01*
X26575Y30531D02*
Y34429D01*
X49001Y215215D02*
X52150D01*
X50575Y213640D02*
Y216790D01*
X43701Y215215D02*
X46850D01*
X45276Y213640D02*
Y216790D01*
X38401Y215215D02*
X41550D01*
X39975Y213640D02*
Y216790D01*
X113963Y18687D02*
X116325D01*
X115144Y17506D02*
Y19869D01*
%TF.MD5,1d16c6b89d2c62edfc7eef933a28dc3f*%
M02*
