%TF.GenerationSoftware,Altium Limited,Altium Designer,23.4.1 (23)*%
G04 Layer_Physical_Order=1*
G04 Layer_Color=255*
%FSLAX25Y25*%
%MOIN*%
%TF.SameCoordinates,CA34A1ED-C86D-48C7-BC74-79F278494880*%
%TF.FilePolarity,Positive*%
%TF.FileFunction,Copper,L1,Top,Signal*%
%TF.Part,Single*%
G01*
G75*
%TA.AperFunction,Conductor*%
%ADD10C,0.03150*%
%ADD11C,0.02000*%
%TA.AperFunction,ComponentPad*%
%ADD12O,0.12000X0.06000*%
%ADD13C,0.05315*%
%ADD14R,0.05315X0.05315*%
%ADD15C,0.12795*%
%ADD16C,0.06024*%
%ADD17R,0.06024X0.06024*%
%ADD18C,0.06102*%
%ADD19C,0.07087*%
%ADD20R,0.07087X0.07087*%
%TA.AperFunction,ViaPad*%
%ADD21C,0.11811*%
%TA.AperFunction,ComponentPad*%
%ADD22O,0.03937X0.07874*%
%ADD23O,0.03937X0.07874*%
%ADD24C,0.04134*%
%ADD25R,0.04134X0.04134*%
%ADD26C,0.07795*%
%ADD27C,0.07618*%
%ADD28R,0.07795X0.07795*%
%ADD29C,0.06693*%
%ADD30R,0.06693X0.06693*%
%ADD31R,0.05906X0.05906*%
%ADD32C,0.05906*%
%ADD33R,0.05906X0.05906*%
%TA.AperFunction,ViaPad*%
%ADD34C,0.03937*%
D10*
X375984Y88971D02*
Y166083D01*
X392966Y183065D01*
X375984Y88971D02*
X398032Y66924D01*
X316929Y55218D02*
Y66924D01*
Y55218D02*
X344987Y27160D01*
D11*
X106051Y17716D02*
X119113Y30778D01*
X100394Y17716D02*
X106051D01*
X119016Y35433D02*
X119113Y35336D01*
Y30778D02*
Y35336D01*
X71546Y207687D02*
X95299D01*
X102199Y214587D02*
X125738D01*
X99393Y10573D02*
X124589D01*
X54107Y66443D02*
X80892D01*
X92256Y55079D01*
X45854Y74696D02*
Y171996D01*
X92256Y17711D02*
Y55079D01*
Y17711D02*
X99393Y10573D01*
X124589D02*
X129764Y15748D01*
X45854Y74696D02*
X54107Y66443D01*
X45854Y171996D02*
X60866Y187008D01*
X156616Y35433D02*
X198878Y77696D01*
Y192091D01*
X175039Y212599D02*
X185686Y201952D01*
X189016D02*
X198878Y192091D01*
X185686Y201952D02*
X189016D01*
X156575Y35433D02*
X156616D01*
X95299Y207687D02*
X102199Y214587D01*
X39854Y72210D02*
X51622Y60443D01*
X54715D02*
X62008Y53150D01*
X45276Y214763D02*
Y215215D01*
X39854Y72210D02*
Y209342D01*
X45276Y214763D01*
X51622Y60443D02*
X54715D01*
X39513Y220504D02*
X177134D01*
X47283Y48492D02*
X70146D01*
X35908Y59867D02*
Y216899D01*
X39513Y220504D01*
X70146Y48492D02*
X74803Y53149D01*
X35908Y59867D02*
X47283Y48492D01*
X177134Y220504D02*
X185039Y212599D01*
X83677Y210687D02*
X87753Y214763D01*
X42854Y73453D02*
Y186084D01*
X67458Y210687D01*
X77305Y63443D02*
X87599Y53149D01*
X67458Y210687D02*
X83677D01*
X87753Y214763D02*
Y215215D01*
X52865Y63443D02*
X77305D01*
X42854Y73453D02*
X52865Y63443D01*
X115144Y18687D02*
X115515Y19058D01*
Y21420D02*
X170866Y76772D01*
X150866D02*
X195878Y121783D01*
X130759Y207824D02*
X139630Y198952D01*
X195878Y121783D02*
Y190848D01*
X139630Y198952D02*
X187774D01*
X201878Y73593D02*
Y195972D01*
X151524Y33341D02*
Y48099D01*
X201878Y195972D02*
X218504Y212598D01*
X130759Y207824D02*
Y214567D01*
X187774Y198952D02*
X195878Y190848D01*
X151524Y33341D02*
X154483Y30382D01*
X151524Y48099D02*
X156575Y53150D01*
X154483Y30382D02*
X158667D01*
X201878Y73593D01*
X342126Y90546D02*
X391890Y40782D01*
Y27160D02*
Y40782D01*
X261024Y90546D02*
X298084Y53485D01*
Y27160D02*
Y53485D01*
X119016Y35433D02*
Y53150D01*
X255730Y201735D02*
X260683Y206687D01*
X115515Y19058D02*
Y21420D01*
X50866Y187008D02*
X71546Y207687D01*
X255730Y127335D02*
Y201735D01*
X125738Y214587D02*
X125759Y214567D01*
X255730Y127335D02*
X268898Y114168D01*
D12*
X202445Y46496D02*
D03*
X179445Y16496D02*
D03*
D13*
X100394Y53150D02*
D03*
X74803Y53149D02*
D03*
X87599D02*
D03*
X62008Y53150D02*
D03*
X49213D02*
D03*
D14*
X100394Y17716D02*
D03*
X74803D02*
D03*
X87599Y17716D02*
D03*
X62008Y17716D02*
D03*
X49213Y17717D02*
D03*
D15*
X18504Y82677D02*
D03*
X223228D02*
D03*
Y181102D02*
D03*
X18504D02*
D03*
D16*
X190866Y76772D02*
D03*
X180866D02*
D03*
X170866D02*
D03*
X160866D02*
D03*
X150866D02*
D03*
X140866D02*
D03*
X130866D02*
D03*
X120866D02*
D03*
X110866D02*
D03*
X100866D02*
D03*
X90866D02*
D03*
X80866D02*
D03*
X70866D02*
D03*
X60866D02*
D03*
X50866D02*
D03*
Y187008D02*
D03*
X60866D02*
D03*
X70866D02*
D03*
X80866D02*
D03*
X90866D02*
D03*
X100866D02*
D03*
X110866D02*
D03*
X120866D02*
D03*
X130866D02*
D03*
X140866D02*
D03*
X150866D02*
D03*
X160866D02*
D03*
X170866D02*
D03*
X180866D02*
D03*
D17*
X190866D02*
D03*
D18*
X175039Y212599D02*
D03*
X185039D02*
D03*
X156575Y35433D02*
D03*
X119016D02*
D03*
X156575Y53150D02*
D03*
X119016D02*
D03*
X218504Y212598D02*
D03*
X228504D02*
D03*
D19*
X391890Y27160D02*
D03*
X298084D02*
D03*
X251181Y27160D02*
D03*
X344987D02*
D03*
D20*
X371890Y27160D02*
D03*
X278084D02*
D03*
X231181Y27160D02*
D03*
X324987D02*
D03*
D21*
X17717Y218504D02*
D03*
Y17717D02*
D03*
X413386D02*
D03*
Y218498D02*
D03*
D22*
X135759Y214567D02*
D03*
X125759D02*
D03*
D23*
X130759D02*
D03*
D24*
X82453Y215215D02*
D03*
X87753D02*
D03*
X45276Y215215D02*
D03*
X39975D02*
D03*
D25*
X93053Y215215D02*
D03*
X50575Y215215D02*
D03*
D26*
X316929Y114168D02*
D03*
Y66924D02*
D03*
X268898D02*
D03*
X398032Y114168D02*
D03*
Y66924D02*
D03*
X350000D02*
D03*
D27*
X261024Y90546D02*
D03*
X342126D02*
D03*
D28*
X268898Y114168D02*
D03*
X350000D02*
D03*
D29*
X149764Y15748D02*
D03*
X139764D02*
D03*
D30*
X129764D02*
D03*
D31*
X392966Y159443D02*
D03*
D32*
Y183065D02*
D03*
X260683Y135821D02*
D03*
Y206687D02*
D03*
X8858Y58071D02*
D03*
Y32480D02*
D03*
X26575D02*
D03*
D33*
Y58071D02*
D03*
D34*
X115144Y18687D02*
D03*
%TF.MD5,76e96f8df2848eaf5122110b097a38ac*%
M02*
