%TF.GenerationSoftware,Altium Limited,Altium Designer,23.4.1 (23)*%
G04 Layer_Color=16711935*
%FSLAX25Y25*%
%MOIN*%
%TF.SameCoordinates,CA34A1ED-C86D-48C7-BC74-79F278494880*%
%TF.FilePolarity,Positive*%
%TF.FileFunction,Other,Top_Assembly*%
%TF.Part,Single*%
G01*
G75*
%TA.AperFunction,NonConductor*%
%ADD36C,0.00787*%
G36*
X141151Y15851D02*
Y15848D01*
Y15837D01*
Y15822D01*
Y15800D01*
X141147Y15771D01*
Y15742D01*
X141140Y15673D01*
X141132Y15593D01*
X141118Y15509D01*
X141096Y15433D01*
X141071Y15360D01*
Y15356D01*
X141067Y15353D01*
X141056Y15331D01*
X141038Y15302D01*
X141012Y15262D01*
X140976Y15222D01*
X140936Y15178D01*
X140885Y15134D01*
X140827Y15098D01*
X140819Y15094D01*
X140798Y15083D01*
X140765Y15069D01*
X140717Y15054D01*
X140659Y15036D01*
X140594Y15021D01*
X140521Y15011D01*
X140441Y15007D01*
X140408D01*
X140386Y15011D01*
X140357Y15014D01*
X140328Y15018D01*
X140252Y15032D01*
X140172Y15054D01*
X140088Y15087D01*
X140044Y15109D01*
X140004Y15134D01*
X139968Y15164D01*
X139931Y15196D01*
X139928Y15200D01*
X139924Y15203D01*
X139917Y15218D01*
X139906Y15233D01*
X139891Y15251D01*
X139877Y15276D01*
X139862Y15305D01*
X139844Y15338D01*
X139829Y15375D01*
X139815Y15418D01*
X139800Y15462D01*
X139786Y15513D01*
X139778Y15567D01*
X139768Y15629D01*
X139764Y15691D01*
Y15760D01*
X140066Y15804D01*
Y15800D01*
Y15793D01*
Y15779D01*
X140070Y15757D01*
X140073Y15735D01*
Y15710D01*
X140084Y15648D01*
X140095Y15582D01*
X140117Y15517D01*
X140139Y15458D01*
X140153Y15433D01*
X140172Y15411D01*
X140175Y15407D01*
X140190Y15396D01*
X140212Y15378D01*
X140241Y15360D01*
X140281Y15338D01*
X140324Y15324D01*
X140379Y15309D01*
X140437Y15305D01*
X140459D01*
X140481Y15309D01*
X140514Y15313D01*
X140546Y15320D01*
X140583Y15327D01*
X140619Y15342D01*
X140656Y15360D01*
X140659Y15364D01*
X140670Y15371D01*
X140685Y15385D01*
X140707Y15400D01*
X140725Y15426D01*
X140747Y15451D01*
X140765Y15480D01*
X140779Y15517D01*
Y15520D01*
X140787Y15535D01*
X140790Y15560D01*
X140798Y15593D01*
X140805Y15637D01*
X140808Y15691D01*
X140816Y15757D01*
Y15833D01*
Y17570D01*
X141151D01*
Y15851D01*
D02*
G37*
G36*
X143120Y17242D02*
X142112D01*
X141977Y16561D01*
X141981Y16565D01*
X141988Y16568D01*
X141999Y16576D01*
X142017Y16587D01*
X142039Y16598D01*
X142064Y16612D01*
X142123Y16641D01*
X142195Y16670D01*
X142275Y16696D01*
X142363Y16714D01*
X142406Y16721D01*
X142487D01*
X142508Y16718D01*
X142537Y16714D01*
X142570Y16711D01*
X142607Y16703D01*
X142647Y16692D01*
X142734Y16667D01*
X142781Y16649D01*
X142829Y16623D01*
X142876Y16598D01*
X142923Y16568D01*
X142967Y16532D01*
X143011Y16492D01*
X143014Y16488D01*
X143022Y16481D01*
X143033Y16470D01*
X143047Y16452D01*
X143065Y16427D01*
X143084Y16401D01*
X143105Y16368D01*
X143127Y16332D01*
X143145Y16292D01*
X143167Y16248D01*
X143185Y16197D01*
X143204Y16146D01*
X143218Y16092D01*
X143229Y16030D01*
X143236Y15968D01*
X143240Y15902D01*
Y15899D01*
Y15888D01*
Y15870D01*
X143236Y15844D01*
X143233Y15815D01*
X143229Y15782D01*
X143222Y15742D01*
X143215Y15702D01*
X143193Y15608D01*
X143156Y15509D01*
X143134Y15458D01*
X143105Y15411D01*
X143076Y15360D01*
X143040Y15313D01*
X143036Y15309D01*
X143029Y15298D01*
X143014Y15284D01*
X142996Y15265D01*
X142971Y15244D01*
X142942Y15214D01*
X142905Y15189D01*
X142865Y15160D01*
X142821Y15131D01*
X142771Y15105D01*
X142716Y15080D01*
X142658Y15054D01*
X142596Y15036D01*
X142527Y15021D01*
X142454Y15011D01*
X142377Y15007D01*
X142345D01*
X142319Y15011D01*
X142290Y15014D01*
X142257Y15018D01*
X142217Y15021D01*
X142177Y15032D01*
X142086Y15054D01*
X141995Y15087D01*
X141948Y15109D01*
X141901Y15134D01*
X141857Y15164D01*
X141813Y15196D01*
X141809Y15200D01*
X141802Y15203D01*
X141795Y15218D01*
X141780Y15233D01*
X141762Y15251D01*
X141744Y15273D01*
X141722Y15302D01*
X141704Y15335D01*
X141682Y15367D01*
X141660Y15407D01*
X141620Y15495D01*
X141587Y15597D01*
X141577Y15651D01*
X141569Y15710D01*
X141893Y15735D01*
Y15731D01*
Y15724D01*
X141897Y15713D01*
X141901Y15695D01*
X141911Y15655D01*
X141926Y15600D01*
X141948Y15546D01*
X141977Y15484D01*
X142013Y15429D01*
X142057Y15378D01*
X142064Y15375D01*
X142079Y15360D01*
X142108Y15342D01*
X142148Y15320D01*
X142192Y15298D01*
X142246Y15280D01*
X142308Y15265D01*
X142377Y15262D01*
X142399D01*
X142414Y15265D01*
X142457Y15269D01*
X142508Y15284D01*
X142570Y15302D01*
X142632Y15331D01*
X142698Y15375D01*
X142727Y15400D01*
X142756Y15429D01*
X142760Y15433D01*
X142763Y15436D01*
X142771Y15447D01*
X142781Y15458D01*
X142807Y15498D01*
X142836Y15549D01*
X142861Y15611D01*
X142887Y15688D01*
X142905Y15779D01*
X142912Y15826D01*
Y15877D01*
Y15880D01*
Y15888D01*
Y15902D01*
X142909Y15921D01*
Y15942D01*
X142905Y15968D01*
X142894Y16026D01*
X142876Y16095D01*
X142851Y16164D01*
X142814Y16230D01*
X142763Y16292D01*
Y16296D01*
X142756Y16299D01*
X142738Y16317D01*
X142705Y16343D01*
X142661Y16372D01*
X142603Y16397D01*
X142537Y16423D01*
X142461Y16441D01*
X142417Y16448D01*
X142348D01*
X142319Y16445D01*
X142283Y16441D01*
X142239Y16430D01*
X142195Y16419D01*
X142148Y16401D01*
X142101Y16379D01*
X142097Y16376D01*
X142083Y16368D01*
X142061Y16350D01*
X142032Y16332D01*
X142002Y16306D01*
X141973Y16274D01*
X141941Y16241D01*
X141915Y16201D01*
X141624Y16241D01*
X141868Y17537D01*
X143120D01*
Y17242D01*
D02*
G37*
D36*
X123681Y10354D02*
Y21142D01*
Y10354D02*
X155847D01*
Y21142D01*
X123681D02*
X155847D01*
%TF.MD5,f5f8c734703304a4ac774e6b18d53c67*%
M02*
