%TF.GenerationSoftware,Altium Limited,Altium Designer,23.4.1 (23)*%
G04 Layer_Physical_Order=2*
G04 Layer_Color=16711680*
%FSLAX25Y25*%
%MOIN*%
%TF.SameCoordinates,CA34A1ED-C86D-48C7-BC74-79F278494880*%
%TF.FilePolarity,Positive*%
%TF.FileFunction,Copper,L2,Bot,Signal*%
%TF.Part,Single*%
G01*
G75*
%TA.AperFunction,Conductor*%
%ADD10C,0.03150*%
%ADD11C,0.02000*%
%TA.AperFunction,ComponentPad*%
%ADD12O,0.12000X0.06000*%
%ADD13C,0.05315*%
%ADD14R,0.05315X0.05315*%
%ADD15C,0.12795*%
%ADD16C,0.06024*%
%ADD17R,0.06024X0.06024*%
%ADD18C,0.06102*%
%ADD19C,0.07087*%
%ADD20R,0.07087X0.07087*%
%TA.AperFunction,ViaPad*%
%ADD21C,0.11811*%
%TA.AperFunction,ComponentPad*%
%ADD22O,0.03937X0.07874*%
%ADD23O,0.03937X0.07874*%
%ADD24C,0.04134*%
%ADD25R,0.04134X0.04134*%
%ADD26C,0.07795*%
%ADD27C,0.07618*%
%ADD28R,0.07795X0.07795*%
%ADD29C,0.06693*%
%ADD30R,0.06693X0.06693*%
%ADD31R,0.05906X0.05906*%
%ADD32C,0.05906*%
%ADD33R,0.05906X0.05906*%
%TA.AperFunction,ViaPad*%
%ADD34C,0.03937*%
G36*
X431102Y-3D02*
X0D01*
Y236223D01*
X431102D01*
Y-3D01*
D02*
G37*
%LPC*%
G36*
X53642Y218282D02*
X47508D01*
Y217972D01*
X47008Y217756D01*
X46459Y218073D01*
X45679Y218282D01*
X44872D01*
X44092Y218073D01*
X43393Y217669D01*
X42939Y217215D01*
X42625Y217143D01*
X42312Y217215D01*
X41859Y217669D01*
X41159Y218073D01*
X40475Y218256D01*
Y215215D01*
Y212174D01*
X41159Y212357D01*
X41859Y212761D01*
X42312Y213214D01*
X42625Y213286D01*
X42939Y213214D01*
X43393Y212761D01*
X44092Y212357D01*
X44872Y212148D01*
X45679D01*
X46459Y212357D01*
X47008Y212674D01*
X47508Y212458D01*
Y212148D01*
X50758D01*
X64212Y198695D01*
X64873Y198252D01*
X65654Y198097D01*
X206042D01*
X206822Y198252D01*
X207484Y198695D01*
X217471Y208681D01*
X217971Y208547D01*
X219037D01*
X220068Y208823D01*
X220991Y209357D01*
X221746Y210111D01*
X222279Y211035D01*
X222555Y212065D01*
Y213132D01*
X222279Y214162D01*
X221746Y215086D01*
X220991Y215840D01*
X220068Y216373D01*
X219037Y216650D01*
X217971D01*
X216940Y216373D01*
X216017Y215840D01*
X215262Y215086D01*
X214729Y214162D01*
X214453Y213132D01*
Y212065D01*
X214587Y211565D01*
X205197Y202176D01*
X66499D01*
X53642Y215032D01*
Y218282D01*
D02*
G37*
G36*
X39475Y218256D02*
X38792Y218073D01*
X38092Y217669D01*
X37521Y217098D01*
X37117Y216399D01*
X36934Y215715D01*
X39475D01*
Y218256D01*
D02*
G37*
G36*
X81953Y218256D02*
X81269Y218073D01*
X80570Y217669D01*
X79999Y217098D01*
X79595Y216398D01*
X79412Y215715D01*
X81953D01*
Y218256D01*
D02*
G37*
G36*
X39475Y214715D02*
X36934D01*
X37117Y214031D01*
X37521Y213332D01*
X38092Y212761D01*
X38792Y212357D01*
X39475Y212174D01*
Y214715D01*
D02*
G37*
G36*
X81953Y214715D02*
X79412D01*
X79595Y214031D01*
X79999Y213332D01*
X80570Y212760D01*
X81269Y212357D01*
X81953Y212174D01*
Y214715D01*
D02*
G37*
G36*
X18397Y225410D02*
X17037D01*
X15702Y225144D01*
X14446Y224624D01*
X13315Y223868D01*
X12353Y222906D01*
X11597Y221775D01*
X11077Y220518D01*
X10811Y219184D01*
Y217824D01*
X11077Y216490D01*
X11597Y215233D01*
X12353Y214102D01*
X13315Y213140D01*
X14446Y212384D01*
X15702Y211864D01*
X17037Y211598D01*
X18397D01*
X19731Y211864D01*
X20988Y212384D01*
X22119Y213140D01*
X23080Y214102D01*
X23836Y215233D01*
X24357Y216490D01*
X24622Y217824D01*
Y219184D01*
X24357Y220518D01*
X23836Y221775D01*
X23080Y222906D01*
X22119Y223868D01*
X20988Y224624D01*
X19731Y225144D01*
X18397Y225410D01*
D02*
G37*
G36*
X414066Y225404D02*
X412706D01*
X411372Y225138D01*
X410115Y224618D01*
X408984Y223862D01*
X408022Y222900D01*
X407266Y221769D01*
X406746Y220513D01*
X406480Y219179D01*
Y217818D01*
X406746Y216484D01*
X407266Y215227D01*
X408022Y214096D01*
X408984Y213135D01*
X410115Y212379D01*
X411372Y211858D01*
X412706Y211593D01*
X414066D01*
X415400Y211858D01*
X416657Y212379D01*
X417788Y213135D01*
X418750Y214096D01*
X419505Y215227D01*
X420026Y216484D01*
X420291Y217818D01*
Y219179D01*
X420026Y220513D01*
X419505Y221769D01*
X418750Y222900D01*
X417788Y223862D01*
X416657Y224618D01*
X415400Y225138D01*
X414066Y225404D01*
D02*
G37*
G36*
X138753Y214067D02*
X136259D01*
Y209670D01*
X136534Y209706D01*
X137256Y210005D01*
X137876Y210481D01*
X138352Y211101D01*
X138651Y211824D01*
X138753Y212598D01*
Y214067D01*
D02*
G37*
G36*
X229037Y216650D02*
X227971D01*
X226940Y216373D01*
X226016Y215840D01*
X225262Y215086D01*
X224729Y214162D01*
X224453Y213132D01*
Y212065D01*
X224587Y211565D01*
X160391Y147370D01*
X154765D01*
X154574Y147832D01*
X189738Y182996D01*
X194878D01*
Y191020D01*
X186854D01*
Y185880D01*
X151344Y150370D01*
X111095D01*
X111095Y150370D01*
X110314Y150215D01*
X109653Y149772D01*
X109653Y149772D01*
X34982Y75101D01*
X34520Y75293D01*
Y147777D01*
X69865Y183123D01*
X70338Y182996D01*
X71394D01*
X72415Y183269D01*
X73330Y183798D01*
X74076Y184545D01*
X74605Y185459D01*
X74878Y186480D01*
Y187536D01*
X74605Y188556D01*
X74076Y189471D01*
X73330Y190218D01*
X72415Y190746D01*
X71394Y191020D01*
X70338D01*
X69318Y190746D01*
X68403Y190218D01*
X67656Y189471D01*
X67128Y188556D01*
X66854Y187536D01*
Y186480D01*
X66981Y186007D01*
X31039Y150064D01*
X30597Y149403D01*
X30441Y148622D01*
Y64821D01*
X27644Y62024D01*
X22622D01*
Y54118D01*
X27819D01*
X28010Y53656D01*
X27575Y53220D01*
X11811D01*
X11031Y53065D01*
X10369Y52623D01*
X2464Y44718D01*
X2022Y44056D01*
X1867Y43276D01*
Y11842D01*
X2022Y11062D01*
X2464Y10400D01*
X10369Y2495D01*
X11031Y2053D01*
X11811Y1898D01*
X135827D01*
X136607Y2053D01*
X137269Y2495D01*
X141206Y6432D01*
X141648Y7094D01*
X141803Y7874D01*
Y11907D01*
X142433Y12270D01*
X143242Y13079D01*
X143814Y14070D01*
X144110Y15176D01*
Y16320D01*
X143814Y17426D01*
X143242Y18417D01*
X142433Y19226D01*
X141442Y19798D01*
X140336Y20095D01*
X139192D01*
X138086Y19798D01*
X137095Y19226D01*
X136286Y18417D01*
X135714Y17426D01*
X135417Y16320D01*
Y15176D01*
X135714Y14070D01*
X136286Y13079D01*
X137095Y12270D01*
X137725Y11907D01*
Y8719D01*
X134982Y5976D01*
X12656D01*
X5945Y12687D01*
Y29151D01*
X6407Y29342D01*
X6431Y29317D01*
X7333Y28797D01*
X8338Y28527D01*
X9379D01*
X10384Y28797D01*
X11286Y29317D01*
X12021Y30053D01*
X12245Y30441D01*
X14764D01*
X15544Y30596D01*
X16206Y31038D01*
X24467Y39299D01*
X100394D01*
X101174Y39455D01*
X101836Y39897D01*
X112019Y50080D01*
X112461Y50741D01*
X112616Y51522D01*
Y55901D01*
X121876Y65162D01*
X140964D01*
X141156Y64700D01*
X121802Y45346D01*
X112205D01*
X111424Y45191D01*
X110763Y44749D01*
X96596Y30582D01*
X64961D01*
X64180Y30427D01*
X63519Y29985D01*
X60566Y27033D01*
X60124Y26371D01*
X59969Y25591D01*
Y21374D01*
X58350D01*
Y14059D01*
X65665D01*
Y21374D01*
X64047D01*
Y24746D01*
X65805Y26504D01*
X97441D01*
X98221Y26659D01*
X98883Y27101D01*
X113049Y41268D01*
X121313D01*
X121504Y40806D01*
X120049Y39350D01*
X119549Y39484D01*
X118482D01*
X117452Y39208D01*
X116528Y38675D01*
X115774Y37921D01*
X115241Y36997D01*
X114964Y35967D01*
Y34900D01*
X115241Y33869D01*
X115774Y32946D01*
X116528Y32192D01*
X117452Y31658D01*
X118482Y31382D01*
X119549D01*
X120579Y31658D01*
X121503Y32192D01*
X122257Y32946D01*
X122438Y33259D01*
X129369D01*
X145606Y17022D01*
X145417Y16320D01*
Y15176D01*
X145713Y14070D01*
X146286Y13079D01*
X147095Y12270D01*
X148086Y11698D01*
X149192Y11402D01*
X150336D01*
X151442Y11698D01*
X152433Y12270D01*
X153242Y13079D01*
X153814Y14070D01*
X154110Y15176D01*
Y16320D01*
X153814Y17426D01*
X153242Y18417D01*
X152433Y19226D01*
X151442Y19798D01*
X150336Y20095D01*
X149192D01*
X148489Y19906D01*
X131656Y36740D01*
X130994Y37182D01*
X130214Y37337D01*
X124457D01*
X124265Y37799D01*
X145628Y59162D01*
X151906D01*
X152097Y58700D01*
X150082Y56684D01*
X149639Y56022D01*
X149484Y55242D01*
Y40485D01*
X149639Y39704D01*
X150082Y39043D01*
X152658Y36467D01*
X152524Y35967D01*
Y34900D01*
X152800Y33869D01*
X153333Y32946D01*
X154087Y32192D01*
X155011Y31658D01*
X156042Y31382D01*
X157108D01*
X158139Y31658D01*
X159062Y32192D01*
X159817Y32946D01*
X160350Y33869D01*
X160626Y34900D01*
Y35967D01*
X160350Y36997D01*
X159817Y37921D01*
X159062Y38675D01*
X158139Y39208D01*
X157108Y39484D01*
X156042D01*
X155542Y39350D01*
X153563Y41329D01*
Y49779D01*
X154025Y49970D01*
X154087Y49908D01*
X155011Y49374D01*
X156041Y49098D01*
X157108D01*
X157608Y49232D01*
X166786Y40054D01*
X167448Y39612D01*
X168228Y39457D01*
X324572D01*
X325353Y39612D01*
X326014Y40054D01*
X348275Y62315D01*
X349355Y62026D01*
X350645D01*
X351890Y62360D01*
X353007Y63004D01*
X353919Y63916D01*
X354564Y65033D01*
X354898Y66279D01*
Y67568D01*
X354564Y68814D01*
X353919Y69931D01*
X353513Y70337D01*
X353704Y70799D01*
X390483D01*
X393257Y68026D01*
X393134Y67568D01*
Y66279D01*
X393468Y65033D01*
X394112Y63916D01*
X395024Y63004D01*
X396141Y62360D01*
X397387Y62026D01*
X398676D01*
X399922Y62360D01*
X401039Y63004D01*
X401445Y63411D01*
X401907Y63219D01*
Y32198D01*
X396895Y27186D01*
X396433Y27377D01*
Y27758D01*
X396124Y28914D01*
X395525Y29950D01*
X394679Y30795D01*
X393643Y31394D01*
X392488Y31703D01*
X391292D01*
X390136Y31394D01*
X389100Y30795D01*
X388254Y29950D01*
X387656Y28914D01*
X387347Y27758D01*
Y26562D01*
X387656Y25406D01*
X388254Y24370D01*
X388790Y23834D01*
X388583Y23334D01*
X376433D01*
Y31703D01*
X370230D01*
X367788Y34145D01*
X367127Y34587D01*
X366347Y34743D01*
X283627D01*
X282847Y34587D01*
X282185Y34145D01*
X279744Y31703D01*
X273541D01*
Y29199D01*
X264536D01*
X264535Y29199D01*
X255250D01*
X254817Y29950D01*
X253971Y30795D01*
X252935Y31394D01*
X251779Y31703D01*
X250583D01*
X249427Y31394D01*
X248391Y30795D01*
X247546Y29950D01*
X246947Y28914D01*
X246638Y27758D01*
Y26562D01*
X246947Y25406D01*
X247546Y24370D01*
X248081Y23834D01*
X247874Y23334D01*
X238680D01*
X235724Y26289D01*
Y31703D01*
X226638D01*
Y26289D01*
X219442Y19093D01*
X185494D01*
X185298Y19349D01*
X184462Y19990D01*
X183489Y20393D01*
X182445Y20531D01*
X176445D01*
X175401Y20393D01*
X174428Y19990D01*
X173592Y19349D01*
X172951Y18513D01*
X172548Y17540D01*
X172410Y16496D01*
X172548Y15452D01*
X172951Y14479D01*
X173592Y13643D01*
X174428Y13002D01*
X175401Y12599D01*
X176445Y12461D01*
X182445D01*
X183489Y12599D01*
X184462Y13002D01*
X185298Y13643D01*
X185494Y13899D01*
X220517D01*
X221189Y13987D01*
X221816Y14247D01*
X222354Y14660D01*
X230311Y22616D01*
X232052D01*
X235767Y18901D01*
X236305Y18488D01*
X236932Y18229D01*
X237604Y18140D01*
X318564D01*
X319236Y18229D01*
X319863Y18488D01*
X320401Y18901D01*
X324116Y22616D01*
X325858D01*
X329573Y18901D01*
X330111Y18488D01*
X330738Y18229D01*
X331410Y18140D01*
X394119D01*
X394791Y18229D01*
X395418Y18488D01*
X395956Y18901D01*
X406340Y29286D01*
X406753Y29823D01*
X407013Y30450D01*
X407101Y31122D01*
Y147906D01*
X407013Y148578D01*
X406753Y149204D01*
X406340Y149742D01*
X396919Y159163D01*
Y163396D01*
X389014D01*
Y155491D01*
X393246D01*
X401907Y146830D01*
Y117872D01*
X401445Y117680D01*
X401039Y118087D01*
X399922Y118731D01*
X398676Y119065D01*
X397387D01*
X396141Y118731D01*
X395024Y118087D01*
X394112Y117175D01*
X393468Y116058D01*
X393134Y114812D01*
Y113523D01*
X393468Y112277D01*
X394112Y111160D01*
X395024Y110248D01*
X396141Y109604D01*
X397387Y109270D01*
X398676D01*
X399922Y109604D01*
X401039Y110248D01*
X401445Y110655D01*
X401907Y110463D01*
Y70628D01*
X401445Y70436D01*
X401039Y70843D01*
X399922Y71487D01*
X398676Y71821D01*
X397387D01*
X396929Y71699D01*
X393395Y75232D01*
X392858Y75645D01*
X392231Y75905D01*
X391559Y75993D01*
X323402D01*
X322729Y75905D01*
X322103Y75645D01*
X321565Y75232D01*
X318032Y71699D01*
X317574Y71821D01*
X316284D01*
X315039Y71487D01*
X313922Y70843D01*
X313010Y69931D01*
X312365Y68814D01*
X312032Y67568D01*
Y66279D01*
X312154Y65821D01*
X295426Y49093D01*
X208494D01*
X208298Y49349D01*
X207462Y49990D01*
X206489Y50393D01*
X205445Y50531D01*
X199445D01*
X198401Y50393D01*
X197428Y49990D01*
X196592Y49349D01*
X195951Y48513D01*
X195548Y47540D01*
X195410Y46496D01*
X195548Y45452D01*
X195951Y44479D01*
X196291Y44035D01*
X196045Y43535D01*
X169073D01*
X160492Y52116D01*
X160626Y52616D01*
Y53683D01*
X160350Y54713D01*
X159816Y55637D01*
X159754Y55700D01*
X159945Y56162D01*
X260175D01*
X260955Y56317D01*
X261617Y56759D01*
X267173Y62315D01*
X268253Y62026D01*
X269542D01*
X270788Y62360D01*
X271905Y63004D01*
X272817Y63916D01*
X273462Y65033D01*
X273795Y66279D01*
Y67568D01*
X273462Y68814D01*
X272817Y69931D01*
X271905Y70843D01*
X270788Y71487D01*
X269542Y71821D01*
X268253D01*
X267007Y71487D01*
X265890Y70843D01*
X264979Y69931D01*
X264334Y68814D01*
X264000Y67568D01*
Y66279D01*
X264289Y65199D01*
X259330Y60240D01*
X218507D01*
X218316Y60702D01*
X266884Y109270D01*
X270911D01*
X273353Y106828D01*
X274015Y106386D01*
X274795Y106231D01*
X344102D01*
X344883Y106386D01*
X345544Y106828D01*
X347986Y109270D01*
X354898D01*
Y119065D01*
X345102D01*
Y112154D01*
X343258Y110309D01*
X320650D01*
X320459Y110771D01*
X320848Y111160D01*
X321493Y112277D01*
X321827Y113523D01*
Y114812D01*
X321493Y116058D01*
X320848Y117175D01*
X319936Y118087D01*
X318820Y118731D01*
X317574Y119065D01*
X316284D01*
X315039Y118731D01*
X313922Y118087D01*
X313010Y117175D01*
X312365Y116058D01*
X312032Y114812D01*
Y113523D01*
X312365Y112277D01*
X313010Y111160D01*
X313399Y110771D01*
X313208Y110309D01*
X275640D01*
X273795Y112154D01*
Y119065D01*
X264000D01*
Y112154D01*
X215086Y63240D01*
X196698D01*
X196507Y63702D01*
X202229Y69424D01*
X202671Y70086D01*
X202827Y70866D01*
Y85443D01*
X202671Y86223D01*
X202229Y86884D01*
X202229Y86884D01*
X201058Y88056D01*
X200396Y88498D01*
X199616Y88653D01*
X182038D01*
X181257Y88498D01*
X180596Y88056D01*
X180596Y88056D01*
X179424Y86884D01*
X178982Y86223D01*
X178827Y85443D01*
Y80227D01*
X178403Y79982D01*
X177656Y79235D01*
X177128Y78320D01*
X176854Y77300D01*
Y76243D01*
X177128Y75223D01*
X177656Y74308D01*
X178403Y73561D01*
X179318Y73033D01*
X180338Y72760D01*
X181394D01*
X182415Y73033D01*
X183329Y73561D01*
X184076Y74308D01*
X184605Y75223D01*
X184878Y76243D01*
Y77300D01*
X184605Y78320D01*
X184076Y79235D01*
X183329Y79982D01*
X182905Y80227D01*
Y84575D01*
X198748D01*
Y71711D01*
X193277Y66240D01*
X183872D01*
X183680Y66702D01*
X189865Y72887D01*
X190338Y72760D01*
X191394D01*
X192415Y73033D01*
X193330Y73561D01*
X194077Y74308D01*
X194605Y75223D01*
X194878Y76243D01*
Y77300D01*
X194605Y78320D01*
X194077Y79235D01*
X193330Y79982D01*
X192415Y80510D01*
X191394Y80783D01*
X190338D01*
X189318Y80510D01*
X188403Y79982D01*
X187656Y79235D01*
X187128Y78320D01*
X186854Y77300D01*
Y76243D01*
X186981Y75770D01*
X180451Y69240D01*
X146872D01*
X146680Y69702D01*
X149865Y72887D01*
X150338Y72760D01*
X151394D01*
X152415Y73033D01*
X153330Y73561D01*
X154077Y74308D01*
X154605Y75223D01*
X154878Y76243D01*
Y77300D01*
X154605Y78320D01*
X154077Y79235D01*
X153330Y79982D01*
X152415Y80510D01*
X151394Y80783D01*
X150338D01*
X149318Y80510D01*
X148403Y79982D01*
X147656Y79235D01*
X147128Y78320D01*
X146854Y77300D01*
Y76243D01*
X146981Y75770D01*
X143451Y72240D01*
X117445D01*
X116664Y72085D01*
X116003Y71643D01*
X101105Y56745D01*
X100875Y56807D01*
X99912D01*
X98982Y56558D01*
X98148Y56076D01*
X97467Y55395D01*
X96985Y54561D01*
X96736Y53631D01*
Y52668D01*
X96985Y51738D01*
X97467Y50904D01*
X98148Y50223D01*
X98982Y49741D01*
X99912Y49492D01*
X100875D01*
X101805Y49741D01*
X102639Y50223D01*
X103320Y50904D01*
X103802Y51738D01*
X104051Y52668D01*
Y53631D01*
X103989Y53861D01*
X118024Y67896D01*
X118117Y67878D01*
X118282Y67335D01*
X109135Y58188D01*
X108693Y57526D01*
X108538Y56746D01*
Y52366D01*
X99549Y43378D01*
X23622D01*
X22842Y43222D01*
X22181Y42781D01*
X13919Y34519D01*
X12245D01*
X12021Y34907D01*
X11286Y35643D01*
X10384Y36164D01*
X9379Y36433D01*
X8338D01*
X7333Y36164D01*
X6431Y35643D01*
X6407Y35619D01*
X5945Y35810D01*
Y42431D01*
X12656Y49142D01*
X28419D01*
X29200Y49297D01*
X29861Y49739D01*
X35533Y55411D01*
X36261Y55555D01*
X36922Y55998D01*
X37365Y56659D01*
X37520Y57439D01*
Y71872D01*
X43353Y77705D01*
X43815Y77514D01*
Y68126D01*
X43970Y67346D01*
X44412Y66684D01*
X47173Y63923D01*
Y56196D01*
X46967Y56076D01*
X46286Y55395D01*
X45804Y54561D01*
X45555Y53631D01*
Y52668D01*
X45804Y51738D01*
X46286Y50904D01*
X46967Y50223D01*
X47801Y49741D01*
X48731Y49492D01*
X49694D01*
X50624Y49741D01*
X51458Y50223D01*
X52139Y50904D01*
X52621Y51738D01*
X52870Y52668D01*
Y53631D01*
X52621Y54561D01*
X52139Y55395D01*
X51458Y56076D01*
X51252Y56196D01*
Y64768D01*
X51252Y64768D01*
X51097Y65548D01*
X50655Y66210D01*
X47894Y68971D01*
Y73417D01*
X48355Y73609D01*
X48403Y73561D01*
X49318Y73033D01*
X50338Y72760D01*
X51394D01*
X52415Y73033D01*
X53329Y73561D01*
X54076Y74308D01*
X54605Y75223D01*
X54878Y76243D01*
Y77300D01*
X54605Y78320D01*
X54076Y79235D01*
X53329Y79982D01*
X52415Y80510D01*
X51394Y80783D01*
X51327D01*
X51136Y81245D01*
X113182Y143291D01*
X161236D01*
X162016Y143447D01*
X162678Y143889D01*
X227471Y208681D01*
X227971Y208547D01*
X229037D01*
X230068Y208823D01*
X230992Y209357D01*
X231746Y210111D01*
X232279Y211035D01*
X232555Y212065D01*
Y213132D01*
X232279Y214162D01*
X231746Y215086D01*
X230992Y215840D01*
X230068Y216373D01*
X229037Y216650D01*
D02*
G37*
G36*
X101342Y225543D02*
X100562Y225388D01*
X99901Y224946D01*
X93236Y218282D01*
X89986D01*
Y217972D01*
X89486Y217756D01*
X88937Y218073D01*
X88157Y218282D01*
X87349D01*
X86569Y218073D01*
X85870Y217669D01*
X85417Y217215D01*
X85103Y217143D01*
X84790Y217215D01*
X84336Y217669D01*
X83637Y218073D01*
X82953Y218256D01*
Y215215D01*
Y212174D01*
X83637Y212357D01*
X84336Y212760D01*
X84790Y213214D01*
X85103Y213286D01*
X85417Y213214D01*
X85870Y212760D01*
X86569Y212357D01*
X87349Y212148D01*
X88157D01*
X88937Y212357D01*
X89486Y212674D01*
X89986Y212457D01*
Y212148D01*
X96120D01*
Y215398D01*
X102187Y221465D01*
X126539D01*
X126730Y221003D01*
X125348Y219621D01*
X125241Y219461D01*
X124984Y219428D01*
X124262Y219128D01*
X123642Y218653D01*
X123166Y218033D01*
X122866Y217310D01*
X122765Y216535D01*
Y212598D01*
X122866Y211824D01*
X123166Y211101D01*
X123642Y210481D01*
X124262Y210005D01*
X124984Y209706D01*
X125759Y209604D01*
X126534Y209706D01*
X127256Y210005D01*
X127876Y210481D01*
X128009Y210654D01*
X128509D01*
X128641Y210481D01*
X129262Y210005D01*
X129984Y209706D01*
X130759Y209604D01*
X131534Y209706D01*
X132256Y210005D01*
X132876Y210481D01*
X133009Y210654D01*
X133509D01*
X133642Y210481D01*
X134262Y210005D01*
X134984Y209706D01*
X135259Y209670D01*
Y214567D01*
X135759D01*
Y215067D01*
X138753D01*
Y216535D01*
X138651Y217310D01*
X138380Y217965D01*
X138573Y218465D01*
X153520D01*
X165879Y206105D01*
X165879Y206105D01*
X166541Y205663D01*
X167321Y205508D01*
X167321Y205508D01*
X192571D01*
X193351Y205663D01*
X194013Y206105D01*
X206518Y218610D01*
X245876D01*
X256846Y207640D01*
X256730Y207208D01*
Y206167D01*
X257000Y205162D01*
X257520Y204260D01*
X258256Y203524D01*
X259157Y203004D01*
X260163Y202735D01*
X261203D01*
X262209Y203004D01*
X263110Y203524D01*
X263846Y204260D01*
X264366Y205162D01*
X264636Y206167D01*
Y207208D01*
X264366Y208213D01*
X263846Y209114D01*
X263110Y209850D01*
X262209Y210371D01*
X261203Y210640D01*
X260163D01*
X259730Y210524D01*
X248163Y222092D01*
X247501Y222533D01*
X246721Y222689D01*
X205673D01*
X204893Y222533D01*
X204231Y222092D01*
X191726Y209587D01*
X188410D01*
X188219Y210049D01*
X188281Y210111D01*
X188814Y211035D01*
X189091Y212065D01*
Y213132D01*
X188814Y214162D01*
X188281Y215086D01*
X187527Y215840D01*
X186603Y216374D01*
X185573Y216650D01*
X184506D01*
X183476Y216374D01*
X182552Y215840D01*
X181798Y215086D01*
X181264Y214162D01*
X180988Y213132D01*
Y212065D01*
X181264Y211035D01*
X181798Y210111D01*
X181860Y210049D01*
X181669Y209587D01*
X178410D01*
X178219Y210049D01*
X178281Y210111D01*
X178814Y211035D01*
X179091Y212065D01*
Y213132D01*
X178814Y214162D01*
X178281Y215086D01*
X177527Y215840D01*
X176603Y216374D01*
X175573Y216650D01*
X174506D01*
X174006Y216516D01*
X165576Y224946D01*
X164914Y225388D01*
X164134Y225543D01*
X101342D01*
X101342Y225543D01*
D02*
G37*
G36*
X61394Y191020D02*
X61366D01*
Y187508D01*
X64878D01*
Y187536D01*
X64605Y188556D01*
X64077Y189471D01*
X63329Y190218D01*
X62415Y190746D01*
X61394Y191020D01*
D02*
G37*
G36*
X60366D02*
X60338D01*
X59318Y190746D01*
X58403Y190218D01*
X57656Y189471D01*
X57128Y188556D01*
X56854Y187536D01*
Y187508D01*
X60366D01*
Y191020D01*
D02*
G37*
G36*
X181394D02*
X180338D01*
X179318Y190746D01*
X178403Y190218D01*
X177656Y189471D01*
X177128Y188556D01*
X176854Y187536D01*
Y186480D01*
X177128Y185459D01*
X177656Y184545D01*
X178403Y183798D01*
X179318Y183269D01*
X180338Y182996D01*
X181394D01*
X182415Y183269D01*
X183329Y183798D01*
X184076Y184545D01*
X184605Y185459D01*
X184878Y186480D01*
Y187536D01*
X184605Y188556D01*
X184076Y189471D01*
X183329Y190218D01*
X182415Y190746D01*
X181394Y191020D01*
D02*
G37*
G36*
X171394D02*
X170338D01*
X169318Y190746D01*
X168403Y190218D01*
X167656Y189471D01*
X167128Y188556D01*
X166854Y187536D01*
Y186480D01*
X167128Y185459D01*
X167656Y184545D01*
X168403Y183798D01*
X169318Y183269D01*
X170338Y182996D01*
X171394D01*
X172415Y183269D01*
X173329Y183798D01*
X174076Y184545D01*
X174605Y185459D01*
X174878Y186480D01*
Y187536D01*
X174605Y188556D01*
X174076Y189471D01*
X173329Y190218D01*
X172415Y190746D01*
X171394Y191020D01*
D02*
G37*
G36*
X161394D02*
X160338D01*
X159318Y190746D01*
X158403Y190218D01*
X157656Y189471D01*
X157128Y188556D01*
X156854Y187536D01*
Y186480D01*
X157128Y185459D01*
X157656Y184545D01*
X158403Y183798D01*
X159318Y183269D01*
X160338Y182996D01*
X161394D01*
X162415Y183269D01*
X163330Y183798D01*
X164076Y184545D01*
X164605Y185459D01*
X164878Y186480D01*
Y187536D01*
X164605Y188556D01*
X164076Y189471D01*
X163330Y190218D01*
X162415Y190746D01*
X161394Y191020D01*
D02*
G37*
G36*
X151394D02*
X150338D01*
X149318Y190746D01*
X148403Y190218D01*
X147656Y189471D01*
X147128Y188556D01*
X146854Y187536D01*
Y186480D01*
X147128Y185459D01*
X147656Y184545D01*
X148403Y183798D01*
X149318Y183269D01*
X150338Y182996D01*
X151394D01*
X152415Y183269D01*
X153330Y183798D01*
X154077Y184545D01*
X154605Y185459D01*
X154878Y186480D01*
Y187536D01*
X154605Y188556D01*
X154077Y189471D01*
X153330Y190218D01*
X152415Y190746D01*
X151394Y191020D01*
D02*
G37*
G36*
X141394D02*
X140338D01*
X139318Y190746D01*
X138403Y190218D01*
X137656Y189471D01*
X137128Y188556D01*
X136854Y187536D01*
Y186480D01*
X137128Y185459D01*
X137656Y184545D01*
X138403Y183798D01*
X139318Y183269D01*
X140338Y182996D01*
X141394D01*
X142415Y183269D01*
X143330Y183798D01*
X144077Y184545D01*
X144605Y185459D01*
X144878Y186480D01*
Y187536D01*
X144605Y188556D01*
X144077Y189471D01*
X143330Y190218D01*
X142415Y190746D01*
X141394Y191020D01*
D02*
G37*
G36*
X131394D02*
X130338D01*
X129318Y190746D01*
X128403Y190218D01*
X127656Y189471D01*
X127128Y188556D01*
X126854Y187536D01*
Y186480D01*
X127128Y185459D01*
X127656Y184545D01*
X128403Y183798D01*
X129318Y183269D01*
X130338Y182996D01*
X131394D01*
X132415Y183269D01*
X133329Y183798D01*
X134076Y184545D01*
X134605Y185459D01*
X134878Y186480D01*
Y187536D01*
X134605Y188556D01*
X134076Y189471D01*
X133329Y190218D01*
X132415Y190746D01*
X131394Y191020D01*
D02*
G37*
G36*
X121394D02*
X120338D01*
X119318Y190746D01*
X118403Y190218D01*
X117656Y189471D01*
X117128Y188556D01*
X116854Y187536D01*
Y186480D01*
X117128Y185459D01*
X117656Y184545D01*
X118403Y183798D01*
X119318Y183269D01*
X120338Y182996D01*
X121394D01*
X122415Y183269D01*
X123329Y183798D01*
X124076Y184545D01*
X124605Y185459D01*
X124878Y186480D01*
Y187536D01*
X124605Y188556D01*
X124076Y189471D01*
X123329Y190218D01*
X122415Y190746D01*
X121394Y191020D01*
D02*
G37*
G36*
X111394D02*
X110338D01*
X109318Y190746D01*
X108403Y190218D01*
X107656Y189471D01*
X107128Y188556D01*
X106854Y187536D01*
Y186480D01*
X107128Y185459D01*
X107656Y184545D01*
X108403Y183798D01*
X109318Y183269D01*
X110338Y182996D01*
X111394D01*
X112415Y183269D01*
X113330Y183798D01*
X114076Y184545D01*
X114605Y185459D01*
X114878Y186480D01*
Y187536D01*
X114605Y188556D01*
X114076Y189471D01*
X113330Y190218D01*
X112415Y190746D01*
X111394Y191020D01*
D02*
G37*
G36*
X101394D02*
X100338D01*
X99318Y190746D01*
X98403Y190218D01*
X97656Y189471D01*
X97128Y188556D01*
X96854Y187536D01*
Y186480D01*
X97128Y185459D01*
X97656Y184545D01*
X98403Y183798D01*
X99318Y183269D01*
X100338Y182996D01*
X101394D01*
X102415Y183269D01*
X103330Y183798D01*
X104077Y184545D01*
X104605Y185459D01*
X104878Y186480D01*
Y187536D01*
X104605Y188556D01*
X104077Y189471D01*
X103330Y190218D01*
X102415Y190746D01*
X101394Y191020D01*
D02*
G37*
G36*
X91394D02*
X90338D01*
X89318Y190746D01*
X88403Y190218D01*
X87656Y189471D01*
X87128Y188556D01*
X86854Y187536D01*
Y186480D01*
X87128Y185459D01*
X87656Y184545D01*
X88403Y183798D01*
X89318Y183269D01*
X90338Y182996D01*
X91394D01*
X92415Y183269D01*
X93330Y183798D01*
X94077Y184545D01*
X94605Y185459D01*
X94878Y186480D01*
Y187536D01*
X94605Y188556D01*
X94077Y189471D01*
X93330Y190218D01*
X92415Y190746D01*
X91394Y191020D01*
D02*
G37*
G36*
X81394D02*
X80338D01*
X79318Y190746D01*
X78403Y190218D01*
X77656Y189471D01*
X77128Y188556D01*
X76854Y187536D01*
Y186480D01*
X77128Y185459D01*
X77656Y184545D01*
X78403Y183798D01*
X79318Y183269D01*
X80338Y182996D01*
X81394D01*
X82415Y183269D01*
X83329Y183798D01*
X84076Y184545D01*
X84605Y185459D01*
X84878Y186480D01*
Y187536D01*
X84605Y188556D01*
X84076Y189471D01*
X83329Y190218D01*
X82415Y190746D01*
X81394Y191020D01*
D02*
G37*
G36*
X64878Y186508D02*
X61366D01*
Y182996D01*
X61394D01*
X62415Y183269D01*
X63329Y183798D01*
X64077Y184545D01*
X64605Y185459D01*
X64878Y186480D01*
Y186508D01*
D02*
G37*
G36*
X60366D02*
X56854D01*
Y186480D01*
X57128Y185459D01*
X57656Y184545D01*
X58403Y183798D01*
X59318Y183269D01*
X60338Y182996D01*
X60366D01*
Y186508D01*
D02*
G37*
G36*
X51394Y191020D02*
X50338D01*
X49318Y190746D01*
X48403Y190218D01*
X47656Y189471D01*
X47128Y188556D01*
X46854Y187536D01*
Y186480D01*
X47128Y185459D01*
X47656Y184545D01*
X48403Y183798D01*
X49318Y183269D01*
X50338Y182996D01*
X51394D01*
X52415Y183269D01*
X53329Y183798D01*
X54076Y184545D01*
X54605Y185459D01*
X54878Y186480D01*
Y187536D01*
X54605Y188556D01*
X54076Y189471D01*
X53329Y190218D01*
X52415Y190746D01*
X51394Y191020D01*
D02*
G37*
G36*
X393487Y187018D02*
X392446D01*
X391441Y186749D01*
X390539Y186228D01*
X389803Y185493D01*
X389283Y184591D01*
X389014Y183586D01*
Y182545D01*
X389283Y181540D01*
X389803Y180638D01*
X390539Y179902D01*
X391441Y179382D01*
X392446Y179113D01*
X393487D01*
X394492Y179382D01*
X395393Y179902D01*
X396129Y180638D01*
X396650Y181540D01*
X396919Y182545D01*
Y183586D01*
X396650Y184591D01*
X396129Y185493D01*
X395393Y186228D01*
X394492Y186749D01*
X393487Y187018D01*
D02*
G37*
G36*
X223957Y188500D02*
X222500D01*
X221071Y188216D01*
X219724Y187658D01*
X218513Y186848D01*
X217482Y185818D01*
X216673Y184607D01*
X216115Y183260D01*
X215831Y181831D01*
Y180374D01*
X216115Y178945D01*
X216673Y177598D01*
X217482Y176387D01*
X218513Y175356D01*
X219724Y174547D01*
X221071Y173989D01*
X222500Y173705D01*
X223957D01*
X225386Y173989D01*
X226732Y174547D01*
X227944Y175356D01*
X228975Y176387D01*
X229784Y177598D01*
X230342Y178945D01*
X230626Y180374D01*
Y181831D01*
X230342Y183260D01*
X229784Y184607D01*
X228975Y185818D01*
X227944Y186848D01*
X226732Y187658D01*
X225386Y188216D01*
X223957Y188500D01*
D02*
G37*
G36*
X19233D02*
X17775D01*
X16346Y188216D01*
X15000Y187658D01*
X13788Y186848D01*
X12758Y185818D01*
X11948Y184607D01*
X11391Y183260D01*
X11106Y181831D01*
Y180374D01*
X11391Y178945D01*
X11948Y177598D01*
X12758Y176387D01*
X13788Y175356D01*
X15000Y174547D01*
X16346Y173989D01*
X17775Y173705D01*
X19233D01*
X20662Y173989D01*
X22008Y174547D01*
X23220Y175356D01*
X24250Y176387D01*
X25060Y177598D01*
X25617Y178945D01*
X25902Y180374D01*
Y181831D01*
X25617Y183260D01*
X25060Y184607D01*
X24250Y185818D01*
X23220Y186848D01*
X22008Y187658D01*
X20662Y188216D01*
X19233Y188500D01*
D02*
G37*
G36*
X261203Y139774D02*
X261183D01*
Y136321D01*
X264636D01*
Y136342D01*
X264366Y137347D01*
X263846Y138249D01*
X263110Y138984D01*
X262209Y139505D01*
X261203Y139774D01*
D02*
G37*
G36*
X260183D02*
X260163D01*
X259157Y139505D01*
X258256Y138984D01*
X257520Y138249D01*
X257000Y137347D01*
X256730Y136342D01*
Y136321D01*
X260183D01*
Y139774D01*
D02*
G37*
G36*
X260683Y135821D02*
D01*
D01*
D01*
D02*
G37*
G36*
X264636Y135321D02*
X261183D01*
Y131869D01*
X261203D01*
X262209Y132138D01*
X263110Y132658D01*
X263846Y133394D01*
X264366Y134296D01*
X264636Y135301D01*
Y135321D01*
D02*
G37*
G36*
X260183D02*
X256730D01*
Y135301D01*
X257000Y134296D01*
X257520Y133394D01*
X258256Y132658D01*
X259157Y132138D01*
X260163Y131869D01*
X260183D01*
Y135321D01*
D02*
G37*
G36*
X342759Y95355D02*
X341493D01*
X340270Y95027D01*
X339173Y94394D01*
X338278Y93498D01*
X337645Y92402D01*
X337317Y91179D01*
Y89912D01*
X337645Y88689D01*
X338278Y87593D01*
X339173Y86697D01*
X340270Y86064D01*
X341493Y85737D01*
X342759D01*
X343982Y86064D01*
X345079Y86697D01*
X345974Y87593D01*
X346607Y88689D01*
X346935Y89912D01*
Y91179D01*
X346607Y92402D01*
X345974Y93498D01*
X345079Y94394D01*
X343982Y95027D01*
X342759Y95355D01*
D02*
G37*
G36*
X261657D02*
X260390D01*
X259167Y95027D01*
X258071Y94394D01*
X257175Y93498D01*
X256542Y92402D01*
X256215Y91179D01*
Y89912D01*
X256542Y88689D01*
X257175Y87593D01*
X258071Y86697D01*
X259167Y86064D01*
X260390Y85737D01*
X261657D01*
X262880Y86064D01*
X263977Y86697D01*
X264872Y87593D01*
X265505Y88689D01*
X265833Y89912D01*
Y91179D01*
X265505Y92402D01*
X264872Y93498D01*
X263977Y94394D01*
X262880Y95027D01*
X261657Y95355D01*
D02*
G37*
G36*
X223957Y90075D02*
X222500D01*
X221071Y89790D01*
X219724Y89233D01*
X218513Y88423D01*
X217482Y87393D01*
X216673Y86181D01*
X216115Y84835D01*
X215831Y83406D01*
Y81949D01*
X216115Y80519D01*
X216673Y79173D01*
X217482Y77961D01*
X218513Y76931D01*
X219724Y76121D01*
X221071Y75564D01*
X222500Y75280D01*
X223957D01*
X225386Y75564D01*
X226732Y76121D01*
X227944Y76931D01*
X228975Y77961D01*
X229784Y79173D01*
X230342Y80519D01*
X230626Y81949D01*
Y83406D01*
X230342Y84835D01*
X229784Y86181D01*
X228975Y87393D01*
X227944Y88423D01*
X226732Y89233D01*
X225386Y89790D01*
X223957Y90075D01*
D02*
G37*
G36*
X19233D02*
X17775D01*
X16346Y89790D01*
X15000Y89233D01*
X13788Y88423D01*
X12758Y87393D01*
X11948Y86181D01*
X11391Y84835D01*
X11106Y83406D01*
Y81949D01*
X11391Y80519D01*
X11948Y79173D01*
X12758Y77961D01*
X13788Y76931D01*
X15000Y76121D01*
X16346Y75564D01*
X17775Y75280D01*
X19233D01*
X20662Y75564D01*
X22008Y76121D01*
X23220Y76931D01*
X24250Y77961D01*
X25060Y79173D01*
X25617Y80519D01*
X25902Y81949D01*
Y83406D01*
X25617Y84835D01*
X25060Y86181D01*
X24250Y87393D01*
X23220Y88423D01*
X22008Y89233D01*
X20662Y89790D01*
X19233Y90075D01*
D02*
G37*
G36*
X171394Y80783D02*
X170338D01*
X169318Y80510D01*
X168403Y79982D01*
X167656Y79235D01*
X167128Y78320D01*
X166854Y77300D01*
Y76243D01*
X167128Y75223D01*
X167656Y74308D01*
X168403Y73561D01*
X169318Y73033D01*
X170338Y72760D01*
X171394D01*
X172415Y73033D01*
X173329Y73561D01*
X174076Y74308D01*
X174605Y75223D01*
X174878Y76243D01*
Y77300D01*
X174605Y78320D01*
X174076Y79235D01*
X173329Y79982D01*
X172415Y80510D01*
X171394Y80783D01*
D02*
G37*
G36*
X161394D02*
X160338D01*
X159318Y80510D01*
X158403Y79982D01*
X157656Y79235D01*
X157128Y78320D01*
X156854Y77300D01*
Y76243D01*
X157128Y75223D01*
X157656Y74308D01*
X158403Y73561D01*
X159318Y73033D01*
X160338Y72760D01*
X161394D01*
X162415Y73033D01*
X163330Y73561D01*
X164076Y74308D01*
X164605Y75223D01*
X164878Y76243D01*
Y77300D01*
X164605Y78320D01*
X164076Y79235D01*
X163330Y79982D01*
X162415Y80510D01*
X161394Y80783D01*
D02*
G37*
G36*
X141394D02*
X140338D01*
X139318Y80510D01*
X138403Y79982D01*
X137656Y79235D01*
X137128Y78320D01*
X136854Y77300D01*
Y76243D01*
X137128Y75223D01*
X137656Y74308D01*
X138403Y73561D01*
X139318Y73033D01*
X140338Y72760D01*
X141394D01*
X142415Y73033D01*
X143330Y73561D01*
X144077Y74308D01*
X144605Y75223D01*
X144878Y76243D01*
Y77300D01*
X144605Y78320D01*
X144077Y79235D01*
X143330Y79982D01*
X142415Y80510D01*
X141394Y80783D01*
D02*
G37*
G36*
X131394D02*
X130338D01*
X129318Y80510D01*
X128403Y79982D01*
X127656Y79235D01*
X127128Y78320D01*
X126854Y77300D01*
Y76243D01*
X127128Y75223D01*
X127656Y74308D01*
X128403Y73561D01*
X129318Y73033D01*
X130338Y72760D01*
X131394D01*
X132415Y73033D01*
X133329Y73561D01*
X134076Y74308D01*
X134605Y75223D01*
X134878Y76243D01*
Y77300D01*
X134605Y78320D01*
X134076Y79235D01*
X133329Y79982D01*
X132415Y80510D01*
X131394Y80783D01*
D02*
G37*
G36*
X121394D02*
X120338D01*
X119318Y80510D01*
X118403Y79982D01*
X117656Y79235D01*
X117128Y78320D01*
X116854Y77300D01*
Y76243D01*
X117128Y75223D01*
X117656Y74308D01*
X118403Y73561D01*
X119318Y73033D01*
X120338Y72760D01*
X121394D01*
X122415Y73033D01*
X123329Y73561D01*
X124076Y74308D01*
X124605Y75223D01*
X124878Y76243D01*
Y77300D01*
X124605Y78320D01*
X124076Y79235D01*
X123329Y79982D01*
X122415Y80510D01*
X121394Y80783D01*
D02*
G37*
G36*
X111394D02*
X110338D01*
X109318Y80510D01*
X108403Y79982D01*
X107656Y79235D01*
X107128Y78320D01*
X106854Y77300D01*
Y76243D01*
X107128Y75223D01*
X107656Y74308D01*
X108403Y73561D01*
X109318Y73033D01*
X110338Y72760D01*
X111394D01*
X112415Y73033D01*
X113330Y73561D01*
X114076Y74308D01*
X114605Y75223D01*
X114878Y76243D01*
Y77300D01*
X114605Y78320D01*
X114076Y79235D01*
X113330Y79982D01*
X112415Y80510D01*
X111394Y80783D01*
D02*
G37*
G36*
X101394D02*
X100338D01*
X99318Y80510D01*
X98403Y79982D01*
X97656Y79235D01*
X97128Y78320D01*
X96854Y77300D01*
Y76243D01*
X97128Y75223D01*
X97656Y74308D01*
X98403Y73561D01*
X99318Y73033D01*
X100338Y72760D01*
X101394D01*
X102415Y73033D01*
X103330Y73561D01*
X104077Y74308D01*
X104605Y75223D01*
X104878Y76243D01*
Y77300D01*
X104605Y78320D01*
X104077Y79235D01*
X103330Y79982D01*
X102415Y80510D01*
X101394Y80783D01*
D02*
G37*
G36*
X91394D02*
X90338D01*
X89318Y80510D01*
X88403Y79982D01*
X87656Y79235D01*
X87128Y78320D01*
X86854Y77300D01*
Y76243D01*
X87128Y75223D01*
X87656Y74308D01*
X88403Y73561D01*
X89318Y73033D01*
X90338Y72760D01*
X91394D01*
X92415Y73033D01*
X93330Y73561D01*
X94077Y74308D01*
X94605Y75223D01*
X94878Y76243D01*
Y77300D01*
X94605Y78320D01*
X94077Y79235D01*
X93330Y79982D01*
X92415Y80510D01*
X91394Y80783D01*
D02*
G37*
G36*
X81394D02*
X80338D01*
X79318Y80510D01*
X78403Y79982D01*
X77656Y79235D01*
X77128Y78320D01*
X76854Y77300D01*
Y76243D01*
X77128Y75223D01*
X77656Y74308D01*
X78403Y73561D01*
X79318Y73033D01*
X80338Y72760D01*
X81394D01*
X82415Y73033D01*
X83329Y73561D01*
X84076Y74308D01*
X84605Y75223D01*
X84878Y76243D01*
Y77300D01*
X84605Y78320D01*
X84076Y79235D01*
X83329Y79982D01*
X82415Y80510D01*
X81394Y80783D01*
D02*
G37*
G36*
X71394D02*
X70338D01*
X69318Y80510D01*
X68403Y79982D01*
X67656Y79235D01*
X67128Y78320D01*
X66854Y77300D01*
Y76243D01*
X67128Y75223D01*
X67656Y74308D01*
X68403Y73561D01*
X69318Y73033D01*
X70338Y72760D01*
X71394D01*
X72415Y73033D01*
X73330Y73561D01*
X74076Y74308D01*
X74605Y75223D01*
X74878Y76243D01*
Y77300D01*
X74605Y78320D01*
X74076Y79235D01*
X73330Y79982D01*
X72415Y80510D01*
X71394Y80783D01*
D02*
G37*
G36*
X61394D02*
X60338D01*
X59318Y80510D01*
X58403Y79982D01*
X57656Y79235D01*
X57128Y78320D01*
X56854Y77300D01*
Y76243D01*
X57128Y75223D01*
X57656Y74308D01*
X58403Y73561D01*
X59318Y73033D01*
X60338Y72760D01*
X61394D01*
X62415Y73033D01*
X63329Y73561D01*
X64077Y74308D01*
X64605Y75223D01*
X64878Y76243D01*
Y77300D01*
X64605Y78320D01*
X64077Y79235D01*
X63329Y79982D01*
X62415Y80510D01*
X61394Y80783D01*
D02*
G37*
G36*
X9379Y62024D02*
X8338D01*
X7333Y61754D01*
X6431Y61234D01*
X5695Y60498D01*
X5175Y59597D01*
X4906Y58591D01*
Y57550D01*
X5175Y56545D01*
X5695Y55644D01*
X6431Y54908D01*
X7333Y54387D01*
X8338Y54118D01*
X9379D01*
X10384Y54387D01*
X11286Y54908D01*
X12021Y55644D01*
X12542Y56545D01*
X12811Y57550D01*
Y58591D01*
X12542Y59597D01*
X12021Y60498D01*
X11286Y61234D01*
X10384Y61754D01*
X9379Y62024D01*
D02*
G37*
G36*
X62489Y56807D02*
X61526D01*
X60596Y56558D01*
X59762Y56076D01*
X59081Y55395D01*
X58600Y54561D01*
X58350Y53631D01*
Y52668D01*
X58600Y51738D01*
X59081Y50904D01*
X59762Y50223D01*
X60596Y49741D01*
X61526Y49492D01*
X62489D01*
X63420Y49741D01*
X64254Y50223D01*
X64934Y50904D01*
X65416Y51738D01*
X65665Y52668D01*
Y53631D01*
X65416Y54561D01*
X64934Y55395D01*
X64254Y56076D01*
X63420Y56558D01*
X62489Y56807D01*
D02*
G37*
G36*
X88080Y56807D02*
X87117D01*
X86187Y56558D01*
X85353Y56076D01*
X84672Y55395D01*
X84190Y54561D01*
X83941Y53631D01*
Y52668D01*
X84190Y51738D01*
X84672Y50904D01*
X85353Y50223D01*
X86187Y49741D01*
X87117Y49492D01*
X88080D01*
X89010Y49741D01*
X89844Y50223D01*
X90525Y50904D01*
X91007Y51738D01*
X91256Y52668D01*
Y53631D01*
X91007Y54561D01*
X90525Y55395D01*
X89844Y56076D01*
X89010Y56558D01*
X88080Y56807D01*
D02*
G37*
G36*
X75285D02*
X74322D01*
X73392Y56558D01*
X72558Y56076D01*
X71877Y55395D01*
X71395Y54561D01*
X71146Y53631D01*
Y52668D01*
X71395Y51738D01*
X71877Y50904D01*
X72558Y50223D01*
X73392Y49741D01*
X74322Y49492D01*
X75285D01*
X76215Y49741D01*
X77049Y50223D01*
X77730Y50904D01*
X78212Y51738D01*
X78461Y52668D01*
Y53631D01*
X78212Y54561D01*
X77730Y55395D01*
X77049Y56076D01*
X76215Y56558D01*
X75285Y56807D01*
D02*
G37*
G36*
X119549Y57201D02*
X118482D01*
X117452Y56925D01*
X116528Y56391D01*
X115774Y55637D01*
X115241Y54713D01*
X114964Y53683D01*
Y52616D01*
X115241Y51586D01*
X115774Y50662D01*
X116528Y49908D01*
X117452Y49374D01*
X118482Y49098D01*
X119549D01*
X120579Y49374D01*
X121503Y49908D01*
X122257Y50662D01*
X122791Y51586D01*
X123067Y52616D01*
Y53683D01*
X122791Y54713D01*
X122257Y55637D01*
X121503Y56391D01*
X120579Y56925D01*
X119549Y57201D01*
D02*
G37*
G36*
X27095Y36433D02*
X26055D01*
X25049Y36164D01*
X24148Y35643D01*
X23412Y34907D01*
X22892Y34006D01*
X22622Y33001D01*
Y31960D01*
X22892Y30955D01*
X23412Y30053D01*
X24148Y29317D01*
X25049Y28797D01*
X26055Y28527D01*
X27095D01*
X28101Y28797D01*
X29002Y29317D01*
X29738Y30053D01*
X30259Y30955D01*
X30528Y31960D01*
Y33001D01*
X30259Y34006D01*
X29738Y34907D01*
X29002Y35643D01*
X28101Y36164D01*
X27095Y36433D01*
D02*
G37*
G36*
X111458Y24413D02*
X96908D01*
X96127Y24258D01*
X95466Y23816D01*
X93640Y21990D01*
X93198Y21328D01*
X93043Y20548D01*
Y20387D01*
X92411Y19755D01*
X91256D01*
Y21374D01*
X83941D01*
Y14059D01*
X91256D01*
Y15677D01*
X93256D01*
X94037Y15832D01*
X94698Y16274D01*
X96236Y17812D01*
X96736Y17605D01*
Y14059D01*
X98354D01*
Y12926D01*
X76843D01*
Y14059D01*
X78461D01*
Y21374D01*
X71146D01*
Y14059D01*
X72764D01*
Y12926D01*
X51252D01*
Y14059D01*
X52870D01*
Y21374D01*
X45555D01*
Y14059D01*
X47173D01*
Y12059D01*
X47329Y11279D01*
X47771Y10617D01*
X48943Y9445D01*
X49604Y9003D01*
X50384Y8848D01*
X73632D01*
X74412Y9003D01*
X74803Y9265D01*
X75195Y9003D01*
X75975Y8848D01*
X99222D01*
X100002Y9003D01*
X100664Y9445D01*
X101836Y10617D01*
X101836Y10617D01*
X102278Y11279D01*
X102433Y12059D01*
Y14059D01*
X104051D01*
Y20335D01*
X110613D01*
X112176Y18772D01*
Y18297D01*
X112378Y17542D01*
X112769Y16865D01*
X113321Y16312D01*
X113998Y15921D01*
X114753Y15719D01*
X115535D01*
X116290Y15921D01*
X116967Y16312D01*
X117519Y16865D01*
X117910Y17542D01*
X118113Y18297D01*
Y19078D01*
X117910Y19833D01*
X117519Y20510D01*
X116967Y21063D01*
X116290Y21454D01*
X115535Y21656D01*
X115059D01*
X112899Y23816D01*
X112238Y24258D01*
X111458Y24413D01*
D02*
G37*
G36*
X134110Y20095D02*
X130264D01*
Y16248D01*
X134110D01*
Y20095D01*
D02*
G37*
G36*
X129264D02*
X125417D01*
Y16248D01*
X129264D01*
Y20095D01*
D02*
G37*
G36*
X134110Y15248D02*
X130264D01*
Y11402D01*
X134110D01*
Y15248D01*
D02*
G37*
G36*
X129264D02*
X125417D01*
Y11402D01*
X129264D01*
Y15248D01*
D02*
G37*
G36*
X414066Y24622D02*
X412706D01*
X411372Y24357D01*
X410115Y23836D01*
X408984Y23080D01*
X408022Y22119D01*
X407266Y20988D01*
X406746Y19731D01*
X406480Y18397D01*
Y17037D01*
X406746Y15702D01*
X407266Y14446D01*
X408022Y13315D01*
X408984Y12353D01*
X410115Y11597D01*
X411372Y11077D01*
X412706Y10811D01*
X414066D01*
X415400Y11077D01*
X416657Y11597D01*
X417788Y12353D01*
X418750Y13315D01*
X419505Y14446D01*
X420026Y15702D01*
X420291Y17037D01*
Y18397D01*
X420026Y19731D01*
X419505Y20988D01*
X418750Y22119D01*
X417788Y23080D01*
X416657Y23836D01*
X415400Y24357D01*
X414066Y24622D01*
D02*
G37*
G36*
X18397D02*
X17037D01*
X15702Y24357D01*
X14446Y23836D01*
X13315Y23080D01*
X12353Y22119D01*
X11597Y20988D01*
X11077Y19731D01*
X10811Y18397D01*
Y17037D01*
X11077Y15702D01*
X11597Y14446D01*
X12353Y13315D01*
X13315Y12353D01*
X14446Y11597D01*
X15702Y11077D01*
X17037Y10811D01*
X18397D01*
X19731Y11077D01*
X20988Y11597D01*
X22119Y12353D01*
X23080Y13315D01*
X23836Y14446D01*
X24357Y15702D01*
X24622Y17037D01*
Y18397D01*
X24357Y19731D01*
X23836Y20988D01*
X23080Y22119D01*
X22119Y23080D01*
X20988Y23836D01*
X19731Y24357D01*
X18397Y24622D01*
D02*
G37*
%LPD*%
G36*
X346487Y70337D02*
X346081Y69931D01*
X345436Y68814D01*
X345102Y67568D01*
Y66279D01*
X345392Y65199D01*
X323728Y43535D01*
X297388D01*
X297289Y44035D01*
X297800Y44247D01*
X298338Y44660D01*
X315827Y62149D01*
X316284Y62026D01*
X317574D01*
X318820Y62360D01*
X319936Y63004D01*
X320848Y63916D01*
X321493Y65033D01*
X321827Y66279D01*
Y67568D01*
X321704Y68026D01*
X324477Y70799D01*
X346296D01*
X346487Y70337D01*
D02*
G37*
G36*
X367347Y28820D02*
Y23334D01*
X348294D01*
X348087Y23834D01*
X348623Y24370D01*
X349221Y25406D01*
X349530Y26562D01*
Y27758D01*
X349221Y28914D01*
X348623Y29950D01*
X348370Y30202D01*
X348561Y30664D01*
X365502D01*
X367347Y28820D01*
D02*
G37*
G36*
X341604Y30202D02*
X341352Y29950D01*
X340753Y28914D01*
X340444Y27758D01*
Y26562D01*
X340753Y25406D01*
X341352Y24370D01*
X341887Y23834D01*
X341680Y23334D01*
X332486D01*
X329530Y26289D01*
Y30664D01*
X341413D01*
X341604Y30202D01*
D02*
G37*
G36*
X320444Y26289D02*
X317489Y23334D01*
X301390D01*
X301183Y23834D01*
X301720Y24370D01*
X302318Y25406D01*
X302627Y26562D01*
Y27758D01*
X302318Y28914D01*
X301720Y29950D01*
X301467Y30202D01*
X301658Y30664D01*
X320444D01*
Y26289D01*
D02*
G37*
G36*
X294701Y30202D02*
X294448Y29950D01*
X293850Y28914D01*
X293541Y27758D01*
Y26562D01*
X293850Y25406D01*
X294448Y24370D01*
X294985Y23834D01*
X294778Y23334D01*
X282627D01*
Y28820D01*
X284472Y30664D01*
X294510D01*
X294701Y30202D01*
D02*
G37*
G36*
X273541Y23334D02*
X254488D01*
X254280Y23834D01*
X254817Y24370D01*
X255250Y25121D01*
X264536D01*
X264537Y25121D01*
X273541D01*
Y23334D01*
D02*
G37*
G36*
X171122Y213632D02*
X170988Y213132D01*
Y212065D01*
X171264Y211035D01*
X171798Y210111D01*
X171860Y210049D01*
X171669Y209587D01*
X168166D01*
X156750Y221003D01*
X156941Y221465D01*
X163289D01*
X171122Y213632D01*
D02*
G37*
D10*
X316929Y66924D02*
X323402Y73396D01*
X179445Y16496D02*
X220517D01*
X231181Y27160D01*
X391559Y73396D02*
X398032Y66924D01*
X323402Y73396D02*
X391559D01*
X237604Y20737D02*
X318564D01*
X404504Y31122D02*
Y147906D01*
X231181Y27160D02*
X237604Y20737D01*
X394119D02*
X404504Y31122D01*
X318564Y20737D02*
X324987Y27160D01*
X202445Y46496D02*
X296502D01*
X316929Y66924D01*
X392966Y159443D02*
X404504Y147906D01*
X331410Y20737D02*
X394119D01*
X324987Y27160D02*
X331410Y20737D01*
D11*
X194122Y64201D02*
X200787Y70866D01*
X143541Y64201D02*
X194122D01*
X200787Y70866D02*
Y85443D01*
X180866Y76772D02*
Y85443D01*
X182038Y86614D01*
X199616D01*
X200787Y85443D01*
X110577Y56746D02*
X121031Y67201D01*
X23622Y41339D02*
X100394D01*
X110577Y51522D02*
Y56746D01*
X100394Y41339D02*
X110577Y51522D01*
X62008Y17716D02*
Y25591D01*
X64961Y28543D02*
X97441D01*
X62008Y25591D02*
X64961Y28543D01*
X112205Y43307D02*
X122647D01*
X97441Y28543D02*
X112205Y43307D01*
X122647D02*
X143541Y64201D01*
X121031Y67201D02*
X181295D01*
X8858Y32480D02*
X14764D01*
X23622Y41339D01*
X117445Y70201D02*
X144295D01*
X100394Y12059D02*
Y17716D01*
X75975Y10887D02*
X99222D01*
X100394Y12059D01*
Y53150D02*
X117445Y70201D01*
X74803Y12059D02*
X75975Y10887D01*
X144295Y70201D02*
X150866Y76772D01*
X139764Y7874D02*
Y15748D01*
X11811Y3937D02*
X135827D01*
X139764Y7874D01*
X3906Y43276D02*
X11811Y51181D01*
X28419D02*
X34678Y57439D01*
X11811Y51181D02*
X28419D01*
X3906Y11842D02*
Y43276D01*
Y11842D02*
X11811Y3937D01*
X34678Y57439D02*
X35481D01*
Y72716D02*
X111095Y148330D01*
X152189D02*
X190866Y187008D01*
X35481Y57439D02*
Y72716D01*
X111095Y148330D02*
X152189D01*
X120126Y35433D02*
Y36543D01*
X49213Y12059D02*
X50384Y10887D01*
X125759Y214567D02*
Y217060D01*
X151523Y40485D02*
Y55242D01*
X101342Y223504D02*
X164134D01*
X154482Y58201D02*
X260175D01*
X268898Y66924D01*
X164134Y223504D02*
X175039Y212599D01*
X151523Y40485D02*
X156575Y35433D01*
X126790Y218091D02*
Y218179D01*
X119016Y35433D02*
X120126D01*
X246721Y220650D02*
X260683Y206687D01*
X215931Y61201D02*
X268898Y114168D01*
X181295Y67201D02*
X190866Y76772D01*
X32481Y63976D02*
Y148622D01*
X26575Y58071D02*
X32481Y63976D01*
Y148622D02*
X70866Y187008D01*
X344102Y108270D02*
X350000Y114168D01*
X154365Y220504D02*
X167321Y207547D01*
X49213Y12059D02*
Y17717D01*
X268898Y114168D02*
X274795Y108270D01*
X130214Y35298D02*
X149764Y15748D01*
X74803Y12059D02*
Y17716D01*
X144783Y61201D02*
X215931D01*
X120450Y35298D02*
X130214D01*
X167321Y207547D02*
X192571D01*
X112337Y145331D02*
X161236D01*
X228504Y212598D01*
X49213Y53150D02*
Y64768D01*
X45854Y68126D02*
X49213Y64768D01*
X45854Y78848D02*
X112337Y145331D01*
X45854Y68126D02*
Y78848D01*
X111458Y22374D02*
X115144Y18687D01*
X96908Y22374D02*
X111458D01*
X95082Y20548D02*
X96908Y22374D01*
X95082Y19542D02*
Y20548D01*
X93256Y17716D02*
X95082Y19542D01*
X87599Y17716D02*
X93256D01*
X140351Y204547D02*
X193814D01*
X206916Y217650D02*
X230596D01*
X85690Y209009D02*
Y211401D01*
X135759Y208687D02*
X135985Y208914D01*
X87811Y206887D02*
X135759Y208687D01*
X135985Y208914D02*
Y214341D01*
Y208914D02*
X140351Y204547D01*
X50575Y215215D02*
X65654Y200136D01*
X206042D01*
X324572Y41496D02*
X350000Y66924D01*
X151523Y55242D02*
X154482Y58201D01*
X93053Y215215D02*
X101342Y223504D01*
X205673Y220650D02*
X246721D01*
X129115Y220504D02*
X154365D01*
X283627Y32703D02*
X366347D01*
X264536Y27160D02*
X278084D01*
X283627Y32703D01*
X135759Y214567D02*
X135985Y214341D01*
X39975Y207899D02*
X60866Y187008D01*
X168228Y41496D02*
X324572D01*
X156575Y53150D02*
X168228Y41496D01*
X206042Y200136D02*
X218504Y212598D01*
X125759Y217060D02*
X126790Y218091D01*
X192571Y207547D02*
X205673Y220650D01*
X274795Y108270D02*
X344102D01*
X126790Y218179D02*
X129115Y220504D01*
X119801Y34648D02*
X120450Y35298D01*
X73632Y10887D02*
X74803Y12059D01*
X50384Y10887D02*
X73632D01*
X120126Y36543D02*
X144783Y61201D01*
X82453Y214637D02*
Y215215D01*
X43591Y219282D02*
X78386D01*
X82453Y215215D01*
X260683Y135821D02*
Y187563D01*
X39975Y207899D02*
Y215666D01*
X43591Y219282D01*
X193814Y204547D02*
X206916Y217650D01*
X230596D02*
X260683Y187563D01*
X82453Y214637D02*
X85690Y211401D01*
Y209009D02*
X87811Y206887D01*
X366347Y32703D02*
X371890Y27160D01*
X264536Y27160D02*
X264536Y27160D01*
X251181Y27160D02*
X264536D01*
D12*
X202445Y46496D02*
D03*
X179445Y16496D02*
D03*
D13*
X100394Y53150D02*
D03*
X74803Y53149D02*
D03*
X87599D02*
D03*
X62008Y53150D02*
D03*
X49213D02*
D03*
D14*
X100394Y17716D02*
D03*
X74803D02*
D03*
X87599Y17716D02*
D03*
X62008Y17716D02*
D03*
X49213Y17717D02*
D03*
D15*
X18504Y82677D02*
D03*
X223228D02*
D03*
Y181102D02*
D03*
X18504D02*
D03*
D16*
X190866Y76772D02*
D03*
X180866D02*
D03*
X170866D02*
D03*
X160866D02*
D03*
X150866D02*
D03*
X140866D02*
D03*
X130866D02*
D03*
X120866D02*
D03*
X110866D02*
D03*
X100866D02*
D03*
X90866D02*
D03*
X80866D02*
D03*
X70866D02*
D03*
X60866D02*
D03*
X50866D02*
D03*
Y187008D02*
D03*
X60866D02*
D03*
X70866D02*
D03*
X80866D02*
D03*
X90866D02*
D03*
X100866D02*
D03*
X110866D02*
D03*
X120866D02*
D03*
X130866D02*
D03*
X140866D02*
D03*
X150866D02*
D03*
X160866D02*
D03*
X170866D02*
D03*
X180866D02*
D03*
D17*
X190866D02*
D03*
D18*
X175039Y212599D02*
D03*
X185039D02*
D03*
X156575Y35433D02*
D03*
X119016D02*
D03*
X156575Y53150D02*
D03*
X119016D02*
D03*
X218504Y212598D02*
D03*
X228504D02*
D03*
D19*
X391890Y27160D02*
D03*
X298084D02*
D03*
X251181Y27160D02*
D03*
X344987D02*
D03*
D20*
X371890Y27160D02*
D03*
X278084D02*
D03*
X231181Y27160D02*
D03*
X324987D02*
D03*
D21*
X17717Y218504D02*
D03*
Y17717D02*
D03*
X413386D02*
D03*
Y218498D02*
D03*
D22*
X135759Y214567D02*
D03*
X125759D02*
D03*
D23*
X130759D02*
D03*
D24*
X82453Y215215D02*
D03*
X87753D02*
D03*
X45276Y215215D02*
D03*
X39975D02*
D03*
D25*
X93053Y215215D02*
D03*
X50575Y215215D02*
D03*
D26*
X316929Y114168D02*
D03*
Y66924D02*
D03*
X268898D02*
D03*
X398032Y114168D02*
D03*
Y66924D02*
D03*
X350000D02*
D03*
D27*
X261024Y90546D02*
D03*
X342126D02*
D03*
D28*
X268898Y114168D02*
D03*
X350000D02*
D03*
D29*
X149764Y15748D02*
D03*
X139764D02*
D03*
D30*
X129764D02*
D03*
D31*
X392966Y159443D02*
D03*
D32*
Y183065D02*
D03*
X260683Y135821D02*
D03*
Y206687D02*
D03*
X8858Y58071D02*
D03*
Y32480D02*
D03*
X26575D02*
D03*
D33*
Y58071D02*
D03*
D34*
X115144Y18687D02*
D03*
%TF.MD5,b548840d59c48ce699f0c5081c40780d*%
M02*
